<?xml version="1.0" encoding="utf-8"?>
<!-- Generator: Adobe Illustrator 16.0.0, SVG Export Plug-In . SVG Version: 6.00 Build 0)  -->
<!DOCTYPE svg PUBLIC "-//W3C//DTD SVG 1.1//EN" "http://www.w3.org/Graphics/SVG/1.1/DTD/svg11.dtd">
<svg version="1.1" id="Layer_1" xmlns="http://www.w3.org/2000/svg" xmlns:xlink="http://www.w3.org/1999/xlink" x="0px" y="0px"
	 width="262px" height="155px" viewBox="0 0 262 155" enable-background="new 0 0 262 155" xml:space="preserve">
<polygon fill="#FFFFFF" points="191.996,108.633 202.758,57.473 133.371,64.24 123.856,116.941 132.979,108.223 "/>
<path fill="#FFFFFF" d="M62.592,102.921V76.833h-3.35v-5.189c0.357-0.222,0.82-0.487,1.392-0.75
	c0.569-0.303,1.033-0.565,1.354-0.715c0.321-0.189,0.678-0.488,1.07-0.902c0.39-0.413,0.711-0.942,0.997-1.503h4.919v35.145h-6.381
	V102.921z M72.286,91.57h6.45v0.376v0.976c0,0.263,0,0.602,0.035,1.052c0.036,0.451,0.071,0.827,0.143,1.091
	c0.036,0.301,0.143,0.602,0.25,0.978c0.142,0.374,0.285,0.637,0.463,0.828c0.145,0.222,0.393,0.413,0.676,0.523
	c0.251,0.189,0.571,0.263,0.927,0.263s0.641-0.073,0.927-0.226c0.251-0.112,0.5-0.261,0.678-0.451
	c0.143-0.15,0.32-0.413,0.426-0.752c0.143-0.336,0.214-0.64,0.286-0.861c0.034-0.226,0.071-0.563,0.106-0.978
	c0.036-0.417,0.073-0.718,0.073-0.903v-0.899c0-1.622-0.394-2.898-1.176-3.801c-0.749-0.861-1.89-1.315-3.421-1.278v-6.801
	c0.749,0,1.392-0.036,1.925-0.111c0.5-0.115,0.963-0.305,1.392-0.566c0.427-0.263,0.748-0.64,0.96-1.203
	c0.215-0.525,0.322-1.2,0.322-1.993c0-0.522-0.035-0.974-0.107-1.387c-0.072-0.379-0.179-0.791-0.323-1.166
	c-0.176-0.416-0.427-0.716-0.781-0.903c-0.358-0.227-0.787-0.339-1.284-0.339c-0.357,0-0.676,0.075-0.927,0.227
	c-0.285,0.147-0.533,0.338-0.678,0.522c-0.178,0.19-0.32,0.493-0.463,0.83c-0.107,0.375-0.214,0.676-0.249,0.976
	c-0.072,0.304-0.108,0.677-0.143,1.092c-0.036,0.448-0.036,0.826-0.036,1.052v0.977v0.338H72.25V76.83
	c0-3.046,0.785-5.409,2.354-7.141c1.568-1.73,3.775-2.594,6.627-2.594c2.814,0,5.024,0.862,6.591,2.594
	c1.571,1.765,2.355,4.134,2.355,7.141c0,1.467-0.286,2.859-0.856,4.212c-0.567,1.353-1.389,2.405-2.494,3.121
	c1.174,0.904,2.032,2.107,2.566,3.607c0.533,1.504,0.784,3.082,0.784,4.815c0,1.611-0.144,3.08-0.498,4.394
	c-0.321,1.321-0.82,2.444-1.497,3.459c-0.678,1.015-1.605,1.808-2.781,2.371c-1.176,0.524-2.564,0.825-4.17,0.825
	c-1.354,0-2.566-0.186-3.6-0.565c-1.032-0.375-1.889-0.866-2.53-1.506c-0.678-0.596-1.211-1.388-1.638-2.325
	c-0.427-0.936-0.713-1.92-0.892-2.97c-0.178-1.019-0.249-2.217-0.286-3.5V91.57H72.286z M92.528,91.57h6.45v0.376v0.976
	c0,0.263,0,0.602,0.036,1.052c0.035,0.451,0.071,0.827,0.143,1.091c0.037,0.301,0.143,0.602,0.284,0.978
	c0.107,0.374,0.25,0.637,0.428,0.828c0.179,0.222,0.393,0.413,0.68,0.523c0.284,0.189,0.568,0.263,0.925,0.263
	c0.357,0,0.677-0.073,0.927-0.226c0.287-0.112,0.497-0.261,0.679-0.451c0.177-0.15,0.319-0.413,0.426-0.752
	c0.146-0.336,0.214-0.64,0.287-0.861c0.037-0.226,0.106-0.563,0.106-0.978c0.037-0.417,0.071-0.718,0.071-0.903v-0.899
	c0-1.622-0.394-2.898-1.141-3.801c-0.784-0.861-1.925-1.315-3.458-1.278v-6.801c0.785,0,1.392-0.036,1.925-0.111
	c0.535-0.115,0.997-0.305,1.427-0.566c0.427-0.263,0.713-0.64,0.927-1.203c0.211-0.525,0.32-1.2,0.32-1.993
	c0-0.522-0.035-0.974-0.109-1.387c-0.069-0.379-0.176-0.791-0.32-1.166c-0.178-0.416-0.429-0.716-0.781-0.903
	c-0.323-0.227-0.75-0.339-1.285-0.339c-0.355,0-0.641,0.075-0.925,0.227c-0.287,0.147-0.499,0.338-0.68,0.522
	c-0.178,0.19-0.32,0.493-0.428,0.83c-0.143,0.375-0.247,0.676-0.284,0.976c-0.071,0.304-0.107,0.677-0.143,1.092
	c-0.036,0.448-0.036,0.826-0.036,1.052v0.977v0.338h-6.45V76.83c0-3.046,0.782-5.409,2.317-7.141
	c1.569-1.73,3.779-2.594,6.627-2.594c2.852,0,5.063,0.862,6.628,2.594c1.568,1.765,2.354,4.134,2.354,7.141
	c0,1.467-0.284,2.859-0.892,4.212c-0.569,1.353-1.389,2.405-2.493,3.121c1.176,0.904,2.031,2.107,2.566,3.607
	c0.535,1.504,0.82,3.082,0.82,4.815c0,1.611-0.18,3.08-0.5,4.394c-0.32,1.321-0.854,2.444-1.532,3.459
	c-0.677,1.015-1.605,1.808-2.78,2.371c-1.177,0.524-2.566,0.825-4.17,0.825c-1.354,0-2.565-0.186-3.598-0.565
	c-1.034-0.375-1.89-0.866-2.531-1.506c-0.676-0.596-1.21-1.388-1.639-2.325c-0.394-0.936-0.714-1.92-0.855-2.97
	c-0.179-1.019-0.285-2.217-0.321-3.5V91.57H92.528z M114.339,102.921l5.774-29.208h-8.126V67.81h14.362v3.459l-5.739,31.651H114.339
	z"/>
<path fill="#030507" d="M172.643,101.642V69.277h6.344c1.142,0,2.138,0.075,2.995,0.187c0.891,0.115,1.747,0.379,2.566,0.753
	c0.853,0.335,1.531,0.827,2.064,1.467c0.536,0.601,0.962,1.389,1.285,2.403c0.355,0.977,0.497,2.182,0.497,3.534
	c0,1.689-0.39,3.046-1.14,4.021c-0.749,0.938-1.925,1.729-3.53,2.296c3.675,0.938,5.49,3.644,5.49,8.155
	c0,3.234-0.746,5.638-2.21,7.218c-1.497,1.54-3.742,2.33-6.771,2.33H172.643L172.643,101.642z M178.844,82.02h1.031
	c0.571,0,1.073-0.114,1.464-0.336c0.354-0.263,0.677-0.566,0.854-1.017c0.214-0.451,0.355-0.903,0.427-1.393
	c0.074-0.526,0.106-1.128,0.106-1.802c0-0.525-0.032-1.016-0.106-1.429c-0.071-0.375-0.143-0.753-0.249-1.018
	c-0.071-0.26-0.247-0.489-0.462-0.675c-0.216-0.19-0.393-0.337-0.57-0.413c-0.144-0.074-0.393-0.151-0.749-0.188
	c-0.321-0.04-0.605-0.077-0.82-0.077h-0.924L178.844,82.02L178.844,82.02z M178.88,97.018h0.568c0.823,0,1.463-0.114,1.962-0.299
	c0.499-0.188,0.893-0.529,1.139-1.015c0.249-0.488,0.43-1.016,0.536-1.617c0.071-0.601,0.106-1.43,0.106-2.443
	c0-1.692-0.287-3.006-0.855-3.946c-0.533-0.941-1.497-1.395-2.851-1.395h-0.605V97.018L178.88,97.018z"/>
<path d="M152.758,101.642l6.629-32.365h5.488l6.629,32.365h-6.13l-1.248-6.919h-4.028l-1.173,6.919H152.758z M160.527,90.704h3.169
	l-1.531-12.03L160.527,90.704z"/>
<polygon fill="#010203" points="139.323,101.642 139.323,69.277 145.56,69.277 145.56,97.13 151.653,97.13 151.653,101.642 "/>
</svg>
